<?xml version="1.0" encoding="UTF-8" standalone="no"?>
<svg viewBox="0 0 75 10" version="1.1"
   xmlns="http://www.w3.org/2000/svg"
   xmlns:svg="http://www.w3.org/2000/svg">

   <g>
      <path class="st0" d="m 39.512317,4.0750991 c 0,-0.211666 -0.18521,-0.343958 -0.47625,-0.343958 h -0.58208 v 0.687917 h 0.58208 c 0.29104,0.02646 0.47625,-0.132292 0.47625,-0.343959 z" id="path52" style="fill:none;stroke-width:0.264583" />
      <polygon class="st0" points="399.4,7.5 397.8,12.9 401.2,12.9 399.6,7.5 " id="polygon56" style="fill:none" transform="matrix(0.26458333,0,0,0.26458333,-62.669763,1.9055161)" />
      <path class="st0" d="m 39.618157,5.4773911 c 0,-0.211667 -0.21167,-0.370417 -0.50271,-0.370417 h -0.66146 v 0.767292 h 0.66146 c 0.29104,0 0.50271,-0.15875 0.50271,-0.396875 z" id="path58" style="fill:none;stroke-width:0.264583" />
      <path class="st0" d="m 34.696907,5.8478081 c 0.58208,0 0.97895,-0.396875 0.97895,-1.031875 0,-0.608542 -0.39687,-1.031875 -0.97895,-1.031875 -0.58209,0 -0.97896,0.423333 -0.97896,1.031875 0,0.608541 0.39687,1.031875 0.97896,1.031875 z" id="path60" style="fill:none;stroke-width:0.264583" />
      <path class="st0" d="m 64.806487,4.8159331 c 0,-0.635 -0.39688,-1.031875 -1.03188,-1.031875 h -0.44979 v 2.06375 h 0.44979 c 0.635,-0.02646 1.03188,-0.423334 1.03188,-1.031875 z" id="path72" style="fill:none;stroke-width:0.264583" />
      <path class="st0" d="m -0.57205348,4.8159331 c 0,-0.635 -0.42334,-1.031875 -1.03188002,-1.031875 h -0.44979 v 2.090208 h 0.44979 c 0.63500002,-0.02646 1.03188002,-0.449792 1.03188002,-1.058333 z" id="path100" style="fill:none;stroke-width:0.264583" />
      <path d="m 6.1483565,3.6782241 c 0.21167,0.05292 0.4498,-0.02646 0.58209,-0.185208 0,0 0.0529,-0.05292 0.0529,-0.07937 0.23813,-0.3175 0.60855,-0.529167 0.97896,-0.555625 0.55563,-0.05292 1.11125,0.211667 1.40229,0.714375 0.15875,0.264583 0.21167,0.555625 0.18521,0.820208 0,0 0,0.02646 0,0.02646 0,0 0,0.02646 0,0.02646 0,0 0,0.02646 0.0265,0.02646 0.0265,0.02646 0.0529,0.02646 0.0794,0.02646 0.0265,0 0.0265,0 0.0529,0 0.0265,0 0.0529,-0.05292 0.0794,-0.07937 0,0 0,0 0,0 0,0 0,-0.02646 0,-0.02646 0,-0.02646 0,-0.07937 0.0265,-0.07937 0.0265,-0.238125 0.0265,-0.47625 -0.0265,-0.714375 0,0 0,-0.05292 0,-0.05292 -0.0529,-0.185209 -0.10584,-0.370417 -0.21167,-0.529167 -0.39687,-0.687917 -1.11125,-1.031875 -1.85208,-1.005417 -0.635,0.02646 -1.21709,0.3175 -1.5875,0.846667 -0.0529,0.07937 -0.10584,0.15875 -0.10584,0.238125 -0.0264,0.132292 0,0.264583 0.0529,0.370417 0,0.105833 0.10583,0.185208 0.26458,0.211666 z" id="path368" style="stroke-width:0.264583" />
      <path d="m 5.3281565,5.8742661 c 0.0794,0 0.1852,0 0.26458,-0.02646 0.13229,-0.05292 0.21167,-0.132292 0.29104,-0.238125 0.0794,-0.132292 0.0794,-0.264584 0.0529,-0.396875 -0.0529,-0.211667 -0.23813,-0.396875 -0.44979,-0.396875 0,0 -0.0794,0 -0.0794,0 -0.39687,-0.05292 -0.74083,-0.264584 -0.97896,-0.582084 -0.3175,-0.449791 -0.37041,-1.058333 -0.0794,-1.561041 0.15875,-0.264584 0.37041,-0.449792 0.60854,-0.582084 0,0 0.0265,0 0.0265,-0.02646 0,0 0,0 0.0265,-0.02646 0,0 0,-0.02646 0,-0.02646 0,-0.02646 0,-0.05292 0,-0.07937 0,0 -0.0265,-0.02646 -0.0265,-0.02646 -0.0529,0 -0.0794,0 -0.13229,0 0,0 0,0 0,0 0,0 -0.0265,0 -0.0265,0 -0.0265,0 -0.0794,0.02646 -0.0794,0.02646 -0.21166,0.07937 -0.42333,0.211667 -0.60854,0.370417 0,0 -0.0265,0.02646 -0.0529,0.02646 -0.13229,0.132292 -0.26458,0.291042 -0.37041,0.449792 -0.39688,0.687917 -0.34396,1.481667 0.0529,2.116667 0.34396,0.555625 0.92605,0.926041 1.56105,0.978958 z" id="path370" style="stroke-width:0.264583" />
      <path d="m 5.9631565,7.3030161 c -0.29105,0 -0.58209,-0.07938 -0.82021,-0.238125 0,0 -0.0265,0 -0.0265,0 0,0 -0.0265,0 -0.0265,0 0,0 -0.0265,0 -0.0265,0 -0.0265,0 -0.0529,0.02646 -0.0794,0.05292 0,0 -0.0265,0.02646 -0.0265,0.02646 0,0.02646 0,0.07937 0.0265,0.105833 0,0 0,0 0,0 0,0 0.0265,0 0.0265,0.02646 0.0265,0.02646 0.0529,0.05292 0.0529,0.05292 0.18521,0.15875 0.39688,0.264584 0.635,0.343959 0,0 0.0529,0 0.0529,0.02646 0.18521,0.05292 0.37042,0.07938 0.58208,0.07938 0.79375,0 1.45521,-0.449792 1.79917,-1.084792 0.29104,-0.555625 0.34396,-1.217083 0.0794,-1.799166 -0.0264,-0.07938 -0.0794,-0.15875 -0.15875,-0.211667 -0.10583,-0.07937 -0.21166,-0.132292 -0.34395,-0.132292 -0.1323,0 -0.26459,0.05292 -0.37042,0.15875 -0.15875,0.15875 -0.21167,0.396875 -0.13229,0.608542 0,0 0.0265,0.07937 0.0265,0.07937 0.15875,0.370417 0.15875,0.767292 0,1.137708 -0.18521,0.423334 -0.68792,0.767292 -1.27,0.767292 z" id="path372" style="stroke-width:0.264583" />
      <polygon points="286.5,7.3 286.5,17.9 290.6,17.9 290.6,7.3 295,7.3 295,4 282.1,4 282.1,7.3 " id="polygon374" transform="matrix(0.26458333,0,0,0.26458333,-62.669763,1.9055161)" />
      <polygon points="297.2,4 297.2,17.9 301.3,17.9 301.3,12.3 306.1,12.3 306.1,17.9 310.2,17.9 310.2,4 306.1,4 306.1,9.1 301.3,9.1 301.3,4 " id="polygon376" transform="matrix(0.26458333,0,0,0.26458333,-62.669763,1.9055161)" />
      <polygon points="312.8,4 312.8,17.9 323.8,17.9 323.8,14.7 316.8,14.7 316.8,12.2 323.2,12.2 323.2,9.6 316.8,9.6 316.8,7.2 323.6,7.2 323.6,4 " id="polygon378" transform="matrix(0.26458333,0,0,0.26458333,-62.669763,1.9055161)" />
      <path d="m 26.944607,6.7473911 c 1.27,0 2.09021,-0.899583 1.95792,-2.2225 h -2.30187 v 0.635 h 1.24354 c -0.0265,0.396875 -0.42334,0.687917 -0.89959,0.687917 -0.58208,0 -1.03187,-0.449792 -1.03187,-1.058334 0,-0.608541 0.42333,-1.031875 0.97896,-1.031875 0.37041,0 0.68791,0.211667 0.79375,0.47625 l 1.00541,-0.185208 c -0.15875,-0.687917 -0.92604,-1.164167 -1.79916,-1.164167 -1.19063,0 -2.06375,0.767292 -2.06375,1.931459 0.0529,1.137708 0.92604,1.931458 2.11666,1.931458 z" id="path380" style="stroke-width:0.264583" />
      <polygon points="348.5,4 348.5,17.9 358.7,17.9 358.7,14.4 352.6,14.4 352.6,4 " id="polygon382" transform="matrix(0.26458333,0,0,0.26458333,-62.669763,1.9055161)" />
      <path d="m 34.696907,6.7209331 c 1.24354,0 2.06375,-0.740834 2.06375,-1.931459 0,-1.164166 -0.84667,-1.931458 -2.06375,-1.931458 -1.24355,0 -2.06375,0.740833 -2.06375,1.931458 0,1.190625 0.8202,1.931459 2.06375,1.931459 z m 0,-2.936875 c 0.58208,0 0.97895,0.423333 0.97895,1.031875 0,0.635 -0.39687,1.031875 -0.97895,1.031875 -0.58209,0 -0.97896,-0.396875 -0.97896,-1.031875 0,-0.635 0.39687,-1.031875 0.97896,-1.031875 z" id="path384" style="stroke-width:0.264583" />
      <path d="m 40.755857,5.6625991 c 0,-0.449791 -0.26458,-0.767291 -0.635,-0.873125 v -0.05292 c 0.29105,-0.105834 0.52917,-0.370417 0.52917,-0.767292 0,-0.608542 -0.52917,-1.031875 -1.37583,-1.031875 h -1.905 v 3.704167 h 1.98437 c 0.87313,0 1.40229,-0.343959 1.40229,-0.978959 z m -2.30187,-1.931458 h 0.58208 c 0.29104,0 0.47625,0.132292 0.47625,0.343958 0,0.211667 -0.18521,0.343959 -0.47625,0.343959 h -0.58208 z m 0,2.143125 v -0.767292 h 0.66146 c 0.29104,0 0.50271,0.15875 0.50271,0.370417 0,0.211667 -0.21167,0.370417 -0.50271,0.370417 z" id="path386" style="stroke-width:0.264583" />
      <path d="m 42.369817,6.0859331 h 1.32292 l 0.18521,0.555625 h 1.11125 l -1.16417,-3.704167 h -1.61396 l -1.16416,3.704167 h 1.11125 z m 0.635,-2.196042 h 0.0529 l 0.42333,1.42875 h -0.89958 z" id="path388" style="stroke-width:0.264583" />
      <polygon points="409.3,4 409.3,17.9 419.4,17.9 419.4,14.4 413.4,14.4 413.4,4 " id="polygon390" transform="matrix(0.26458333,0,0,0.26458333,-62.669763,1.9055161)" />
      <polygon points="431.3,17.9 431.3,12.9 437,12.9 437,9.8 431.3,9.8 431.3,7.5 437.9,7.5 437.9,4 427.2,4 427.2,17.9 " id="polygon392" transform="matrix(0.26458333,0,0,0.26458333,-62.669763,1.9055161)" />
      <path d="m 55.598987,6.7209331 c 1.03187,0 1.74625,-0.608542 1.74625,-1.5875 v -2.169584 h -1.08479 v 2.143125 c 0,0.449792 -0.26459,0.740834 -0.635,0.740834 -0.39688,0 -0.635,-0.291042 -0.635,-0.740834 v -2.143125 h -1.08479 v 2.169584 c -0.0265,0.978958 0.66145,1.5875 1.69333,1.5875 z" id="path394" style="stroke-width:0.264583" />
      <polygon points="456.4,4 456.4,17.9 460.2,17.9 460.2,9.3 460.4,9.3 465,17.9 469.4,17.9 469.4,4 465.6,4 465.6,12.6 465.4,12.6 460.8,4 " id="polygon396" transform="matrix(0.26458333,0,0,0.26458333,-62.669763,1.9055161)" />
      <path d="m 65.917737,4.8159331 c 0,-1.11125 -0.84667,-1.852084 -2.11667,-1.852084 h -1.50812 v 3.704167 h 1.50812 c 1.27,-0.02646 2.11667,-0.740833 2.11667,-1.852083 z m -2.59292,-1.031875 h 0.44979 c 0.60855,0 1.03188,0.396875 1.03188,1.031875 0,0.635 -0.39688,1.031875 -1.03188,1.031875 h -0.44979 z" id="path398" style="stroke-width:0.264583" />
   </g>
</svg>
